<svg width="150" height="60" viewBox="0 0 150 60" fill="none" xmlns="http://www.w3.org/2000/svg">
<g clip-path="url(#clip0)">
<path d="M25.4824 27.6801V40.4879C25.4824 41.5723 26.1799 42.3289 27.2026 42.3289C28.2254 42.3289 28.9475 41.5698 28.9475 40.4879V27.6801C28.9475 26.5982 28.2229 25.8391 27.2026 25.8391C26.2094 25.8391 25.4824 26.5982 25.4824 27.6801Z" fill="#64AE28"/>
<path d="M65.7271 40.2734C66.077 39.921 66.2643 39.4872 66.2643 39.0289C66.2643 38.1885 65.6187 37.5132 64.7857 37.5132C64.384 37.5132 63.9527 37.6759 63.6027 37.9741C62.4198 38.8662 61.4808 39.2186 60.1648 39.2186C58.4199 39.2186 57.1828 38.3782 56.6726 36.8355C56.5124 36.3475 56.4582 35.9162 56.4311 35.2927H65.1874C66.0204 35.2927 66.6389 34.6963 66.6389 33.8584C66.6389 32.2885 66.4788 31.0686 66.1017 30.0138C65.2145 27.224 62.9053 25.6271 59.736 25.6271C56.6209 25.6271 54.3092 27.224 53.3974 30.0409C53.0474 31.1253 52.8872 32.2614 52.8872 34.0482C52.8872 35.7265 53.0474 36.9464 53.4245 38.0554C54.3388 40.9265 56.648 42.4964 59.9504 42.4964C62.1807 42.521 64.1671 41.7619 65.7271 40.2734ZM56.648 30.9331C57.1039 29.553 58.2055 28.7939 59.7902 28.7939C61.3477 28.7939 62.4765 29.553 62.9324 30.9331C63.0655 31.3126 63.1197 31.7463 63.1468 32.3403H56.4853C56.4853 31.771 56.5396 31.3372 56.648 30.9331Z" fill="#64AE28"/>
<path d="M31.3384 37.5106C31.3384 40.6528 33.4874 42.5209 37.1126 42.5209C39.1261 42.5209 40.6048 42.0058 41.7581 40.8968L42.1081 41.4661C42.5123 42.0354 42.9953 42.3065 43.6114 42.3065C44.6317 42.3065 45.3563 41.6017 45.3563 40.6282C45.3563 40.33 45.2478 39.9776 45.0876 39.6794L44.5504 38.7034C44.3631 38.3239 44.3089 38.0799 44.3089 37.2962V31.7709C44.3089 27.6823 42.1599 25.6245 37.916 25.6245C35.9814 25.6245 34.2095 26.0583 33.0808 26.842C32.5435 27.1402 32.2478 27.6823 32.2478 28.2763C32.2478 29.1955 32.8663 29.819 33.7782 29.819C34.0468 29.819 34.3968 29.7106 34.7172 29.5479C35.3629 29.2226 36.5162 28.816 37.645 28.816C39.9271 28.816 40.9227 29.7106 40.9227 31.7955V32.3377H37.645C33.5958 32.3402 31.3384 34.1811 31.3384 37.5106ZM40.9547 35.2902V36.8058C40.9547 38.457 39.6658 39.4329 37.4897 39.4329C35.6093 39.4329 34.695 38.7823 34.695 37.4293C34.695 35.9408 35.6882 35.3173 38.0787 35.3173L40.9547 35.2902Z" fill="#64AE28"/>
<path d="M69.2198 40.7564C70.1587 41.407 72.1475 42.516 74.994 42.516C79.1294 42.516 81.6012 40.4853 81.6012 37.1016C81.6012 34.3118 79.9353 32.7148 76.66 32.3353L75.0753 32.1726C72.6306 31.9286 72.4433 31.2238 72.4433 30.4943C72.4433 29.4099 73.3847 28.7618 74.9423 28.7618C75.9897 28.7618 77.0913 29.0329 78.1658 29.5208C78.5946 29.7377 78.9445 29.819 79.2945 29.819C80.1546 29.819 80.8249 29.1142 80.8249 28.2763C80.8249 27.6528 80.475 27.1648 79.8318 26.8149C78.5157 26.0558 76.8226 25.6492 75.0778 25.6492C71.2899 25.6492 69.062 27.5443 69.062 30.7408C69.062 33.4492 70.8093 35.1275 73.9786 35.4799L75.5633 35.6426C78.008 35.9137 78.1953 36.5372 78.1953 37.4293C78.1953 38.6197 77.0937 39.3516 75.2405 39.3516C73.5745 39.3516 72.3127 38.7281 71.1568 38.0528C70.7527 37.8089 70.4323 37.7004 70.0823 37.7004C69.168 37.7004 68.4434 38.4053 68.4434 39.3245C68.4139 39.8618 68.7072 40.3768 69.2198 40.7564Z" fill="#64AE28"/>
<path d="M46.1073 47.9602C49.3308 47.9602 50.8884 46.309 50.8884 42.9499V27.6801C50.8884 26.5982 50.1909 25.8391 49.1682 25.8391C48.1479 25.8391 47.448 26.5982 47.448 27.6801V42.9795C47.448 44.3867 47.1523 44.5765 45.9964 44.6849C45.055 44.7662 44.466 45.4169 44.466 46.3361C44.4413 47.2578 45.1141 47.9602 46.1073 47.9602Z" fill="#64AE28"/>
<path d="M21.1348 26.0313C20.4645 26.0584 19.9002 26.4921 19.6586 27.0885C19.6586 27.0885 16.5164 34.8861 16.1936 35.6994L16.0334 36.1331L11.6565 26.9801C11.3608 26.3837 10.7693 26.0042 10.099 26.0042C9.83033 26.0042 9.58882 26.0584 9.3473 26.1668C8.4872 26.5734 8.13971 27.6011 8.54142 28.4686L14.6385 41.1951C14.9342 41.7915 15.5257 42.1711 16.1689 42.1711H16.2232C16.9206 42.1439 17.5392 41.6831 17.7807 41.0349C17.8078 40.9536 22.7762 28.5253 22.8304 28.3898C23.1804 27.4976 22.7762 26.4946 21.8914 26.1422C21.645 26.0584 21.3764 26.0041 21.1348 26.0313Z" fill="#64AE28"/>
<path d="M48.4983 17.0802C48.3578 17.0802 48.2223 17.0926 48.0867 17.1123C43.1578 10.8649 35.5253 6.83545 26.9292 6.83545C12.0759 6.83545 0 18.9483 0 33.8731C0 46.1856 7.50677 56.6645 18.8852 59.8831C19.5186 60.063 20.1791 59.6934 20.359 59.0551C20.5364 58.4192 20.1692 57.7563 19.5334 57.5764C9.26147 54.6732 2.38807 45.1949 2.38807 33.8731C2.38807 20.2693 13.3944 9.22845 26.9292 9.22845C34.6825 9.22845 41.578 12.8241 46.0757 18.4258C45.7972 18.8694 45.6321 19.3944 45.6321 19.9538C45.6321 21.5508 46.9309 22.8274 48.4983 22.8274C50.0903 22.8274 51.3645 21.5237 51.3645 19.9538C51.3645 18.3568 50.0632 17.0802 48.4983 17.0802Z" fill="#64AE28"/>
</g>
<defs>
<clipPath id="clip0">
<path d="M0 0H149.62V60H0V0Z" fill="white"/>
</clipPath>
</defs>
</svg>
